<svg xmlns="http://www.w3.org/2000/svg" viewBox="0 0 93.25 93.24"><defs><style>.cls-1{fill:#edddd6;}.cls-2{fill:#c63;}.cls-3{fill:#fca397;}.cls-4{fill:#ffbf69;}</style></defs><title>member-01</title><g id="Layer_2" data-name="Layer 2"><g id="Layer_1-2" data-name="Layer 1"><path class="cls-1" d="M93.25,46.62a46.58,46.58,0,0,1-20,38.3,46.31,46.31,0,0,1-26.58,8.32h-1.1A46.62,46.62,0,1,1,93.25,46.62Z"/><path class="cls-2" d="M73.21,84.92a46.31,46.31,0,0,1-26.58,8.32h-1.1A46.58,46.58,0,0,1,12.25,78.11C15.53,71,23.14,57.59,35,54.37l.41-.11C49.22,50.78,67.9,54,71.62,56.82,73.15,58.08,73.42,70.59,73.21,84.92Z"/><path d="M38.26,29.41S30.51,19.83,33.76,16,42,16,42,16s.28-4.5,5.29-4,8,5.81,8,5.81,4.41-4.42,7.43,0,.93,11.61.93,11.61,3.49-.52,2.56,3.58-6.41,8.3-6.41,8.3Z"/><path class="cls-3" d="M55.22,44.5l.14,10.81s-1.9,3.13-8.22,3.73c-4.7.44-6.37-.6-6.37-.6L41.35,53l.58-5.35L53.31,45Z"/><path d="M53.31,45a3.74,3.74,0,0,1-.3,1c-2.35,5.44-8.94,6.69-11.66,7l.58-5.35Z"/><path class="cls-3" d="M39.18,23S33.7,36.64,36,44.14s9.19,6.11,13.27,4.52a13.65,13.65,0,0,0,5.92-4.16A5.82,5.82,0,0,0,61.58,42c2.47-3.65.76-7.72-1.46-8.6s-4.79.79-4.79.79l1.93-4S48.07,10.64,39.18,23Z"/><path d="M55.8,40.13a.48.48,0,0,1-.4-.21.5.5,0,0,1,.1-.7l4.07-3a.5.5,0,0,1,.6.81l-4.08,3A.51.51,0,0,1,55.8,40.13Z"/><path d="M60.24,40l-.12,0-3.22-.78a.5.5,0,1,1,.24-1l3.21.78a.5.5,0,0,1-.11,1Z"/><path d="M48,29.35a.51.51,0,0,1-.47-.33,2.42,2.42,0,0,0-2.66-1.76.51.51,0,0,1-.58-.41.51.51,0,0,1,.41-.58,3.41,3.41,0,0,1,3.77,2.41.49.49,0,0,1-.3.64A.51.51,0,0,1,48,29.35Z"/><path d="M37.82,28.29a.52.52,0,0,1-.38-.17.51.51,0,0,1,.05-.71c.49-.4,1.76-1.49,2.34-.83a.49.49,0,0,1,0,.7.48.48,0,0,1-.47.11,3.72,3.72,0,0,0-1.17.78A.49.49,0,0,1,37.82,28.29Z"/><path d="M39.78,38.55a.51.51,0,0,1-.4-.2c-1.76-2.3,1.62-5.94,1.76-6.09a.5.5,0,0,1,.71,0,.49.49,0,0,1,0,.7c-.82.88-2.73,3.45-1.7,4.81a.49.49,0,0,1-.39.8Z"/><path d="M38.9,33.73h-.08a.5.5,0,0,1-.42-.57l.36-2.54a.51.51,0,0,1,.57-.42.5.5,0,0,1,.42.56l-.36,2.55A.5.5,0,0,1,38.9,33.73Z"/><path d="M46.34,33.74a.52.52,0,0,1-.5-.54L46,30.64a.49.49,0,0,1,.53-.47.52.52,0,0,1,.47.53l-.17,2.57A.5.5,0,0,1,46.34,33.74Z"/><path d="M38.09,26.08a4.54,4.54,0,0,1,3.84-2.24,5.81,5.81,0,0,1,4.29,1.82s-1.12,4.56,2.58,6.92,6.53,1.65,6.53,1.65l2.64-1,1.9-3.91-7.8-8.18L42,16,37,20.7Z"/><path d="M42.69,42.82h-.22a.5.5,0,0,1-.45-.54.48.48,0,0,1,.53-.46,3.15,3.15,0,0,0,3-1.76.49.49,0,0,1,.66-.25.5.5,0,0,1,.25.66A4.09,4.09,0,0,1,42.69,42.82Z"/><path class="cls-2" d="M86,71.66a46.87,46.87,0,0,1-21.5,18l7.16-32.89A62.15,62.15,0,0,1,86,71.66Z"/><path class="cls-4" d="M45.55,59.6a24.48,24.48,0,0,1-6.24-.8.5.5,0,1,1,.28-1,24.32,24.32,0,0,0,7.51.7c4.59-.34,9-3.6,9-3.63a.5.5,0,0,1,.7.09.51.51,0,0,1-.1.7c-.19.15-4.65,3.47-9.53,3.84C46.62,59.58,46.07,59.6,45.55,59.6Z"/><text/></g></g></svg>