<svg xmlns="http://www.w3.org/2000/svg" viewBox="0 0 93.25 93.24"><defs><style>.cls-1{fill:#edddd6;}.cls-2{fill:#fcb35b;}.cls-3{fill:#fca397;}.cls-4{fill:#fff;}</style></defs><title>member-05</title><g id="Layer_2" data-name="Layer 2"><g id="Layer_1-2" data-name="Layer 1"><path class="cls-1" d="M93.25,46.62A46.62,46.62,0,0,1,11.87,77.69c-.51-.56-1-1.14-1.48-1.73A46.62,46.62,0,1,1,93.25,46.62Z"/><path d="M34.29,36.68S23.45,44.85,22.64,54.79c-1.22,15,15.88,8.45,17.76-1.13S34.29,36.68,34.29,36.68Z"/><path class="cls-2" d="M76.72,82.22a46.61,46.61,0,0,1-64.85-4.53c-.51-.56-1-1.14-1.48-1.73L39.9,54.58,41,53.75l11.59.94,4.81.39Z"/><path d="M33.32,35.66a13.86,13.86,0,0,1-2.79-11c.77-4.54,2.79-6,2.79-6s-3.08-6.2,6.08-5.82A25.72,25.72,0,0,1,54,17.67S58.15,15.62,60,20.5s0,12.09,0,12.09Z"/><path class="cls-2" d="M41,54.5,11.87,77.69c-.51-.56-1-1.14-1.48-1.73a46.76,46.76,0,0,1-3.77-5.38c.9-.81,1.84-1.62,2.81-2.43C22.8,57,36,55,39.9,54.58,40.65,54.51,41,54.5,41,54.5Z"/><path class="cls-3" d="M53.44,43.21l-.23,11.95s-2.08,3.37-8.64,3.73c-4.89.27-6.38-2.45-6.38-2.45L39.57,46l11.87-2.4Z"/><path class="cls-2" d="M87.17,69.65A46.87,46.87,0,0,1,61.53,90.81l7.54-9.19L52.63,54.69l-.12-.19a42.58,42.58,0,0,1,4.93.58C64.36,56.23,77.22,59.64,87.17,69.65Z"/><path d="M53.44,42.52a3.89,3.89,0,0,1-.36,1.08c-2.64,5.52-11.51,7.63-14.33,7.81l.81-5.51Z"/><path class="cls-3" d="M37.71,20.34S31.48,34.22,33.6,42.07s9.27,6.68,13.55,5.21a14.14,14.14,0,0,0,6.29-4.07,6,6,0,0,0,6.67-2.29c2.71-3.68,1.1-8-1.16-9s-5,.63-5,.63l2.16-4S47.39,7.89,37.71,20.34Z"/><path d="M54,32.59s-6,1.2-10.16-5.47S40,17.72,40,17.72L35.87,24.6s-.93-4.77,1-7.82,3.89-2.41,3.89-2.41L54,17.67l3.48,10.6Z"/><path d="M38.18,38.11a.51.51,0,0,1-.48-.36c-.92-3,1.2-6.05,1.29-6.18a.5.5,0,0,1,.82.58s-1.93,2.78-1.15,5.31a.51.51,0,0,1-.33.63Z"/><path d="M54.53,39.18a.5.5,0,0,1-.36-.84l3.8-4a.5.5,0,0,1,.72.69l-3.8,4A.46.46,0,0,1,54.53,39.18Z"/><path d="M58.54,38.12h-.07l-2.62-.4a.51.51,0,0,1-.42-.57.5.5,0,0,1,.57-.42l2.62.4a.5.5,0,0,1-.08,1Z"/><path d="M43.2,42.1a6.81,6.81,0,0,1-3-1,.49.49,0,0,1-.24-.44.52.52,0,0,1,.27-.43L44.42,38a.48.48,0,0,1,.42,0,.51.51,0,0,1,.29.32c0,.09.69,2.35-.72,3.43A2,2,0,0,1,43.2,42.1Zm-1.69-1.46c.81.36,1.82.65,2.3.29a1.87,1.87,0,0,0,.47-1.73Z"/><path d="M35.5,26.69a.5.5,0,0,1-.09-1l2.48-.43a.5.5,0,0,1,.17,1l-2.48.43Z"/><path d="M45.78,28.32a.46.46,0,0,1-.22-.06L41.5,26.21a.5.5,0,1,1,.45-.89L46,27.37a.5.5,0,0,1-.23.95Z"/><path d="M61.53,36.68A24.34,24.34,0,0,1,69,56.38C67.73,68.59,55.62,67,53.08,62.57c-3.86-6.75.36-19.36.36-19.36S60.86,44.45,61.53,36.68Z"/><path d="M35.5,32.41a.39.39,0,0,1-.15,0,.5.5,0,0,1-.33-.62l.69-2.26-.6-.74a.5.5,0,0,1,.07-.7.49.49,0,0,1,.7.07l.78.94a.53.53,0,0,1,.09.47L36,32.06A.48.48,0,0,1,35.5,32.41Z"/><path d="M43.07,33.09l-.15,0a.51.51,0,0,1-.33-.63l.69-2.25-.88-1a.49.49,0,0,1,.05-.7.51.51,0,0,1,.71.05l1.06,1.25a.5.5,0,0,1,.1.47l-.77,2.52A.51.51,0,0,1,43.07,33.09Z"/><path class="cls-4" d="M44.6,59.38A10.52,10.52,0,0,1,37.79,57a.49.49,0,0,1,0-.7.51.51,0,0,1,.71,0c.2.19,5,4.54,12.73.19a.5.5,0,1,1,.49.87A14.47,14.47,0,0,1,44.6,59.38Z"/><path class="cls-4" d="M35,35.94a5,5,0,1,1,4.87-5A5,5,0,0,1,35,35.94Zm0-9a4,4,0,1,0,3.87,4A4,4,0,0,0,35,26.9Z"/><path class="cls-4" d="M44.24,35.61a5,5,0,1,1,4.87-5A5,5,0,0,1,44.24,35.61Zm0-9a4,4,0,1,0,3.87,4A4,4,0,0,0,44.24,26.57Z"/><path class="cls-4" d="M56.3,31.27a.51.51,0,0,0,.34-.14.5.5,0,0,0,0-.71c-2.69-2.85-7.94-.21-8.17-.1a.5.5,0,0,0-.21.67.49.49,0,0,0,.67.22s4.81-2.41,7-.1A.52.52,0,0,0,56.3,31.27Z"/></g></g></svg>