<svg xmlns="http://www.w3.org/2000/svg" viewBox="0 0 93.25 93.24"><defs><style>.cls-1{fill:#edddd6;}.cls-2{fill:#fca397;}.cls-3{fill:#507849;}.cls-4{fill:#fff;}</style></defs><title>member-03</title><g id="Layer_2" data-name="Layer 2"><g id="Layer_1-2" data-name="Layer 1"><path class="cls-1" d="M89.78,64.3A46.72,46.72,0,0,1,59.17,91.53c-1,.27-1.92.51-2.9.71A47.29,47.29,0,0,1,41.74,93c-1.05-.11-2.09-.26-3.12-.44-1.36-.24-2.69-.53-4-.88a44.32,44.32,0,0,1-5.22-1.73A46.6,46.6,0,0,1,0,46.62c0-36.74,42.5-63.54,81-34C94.48,30.62,95.9,49.4,89.78,64.3Z"/><path d="M35.43,22.81s-6.85-8.44-5-9.56,3.6.59,3.6.59,14-2.2,19.06-.75,8.5,9.78,8.5,9.78,2.55-.24,3.63,3.25S58.79,46.73,54,45.84,35.43,22.81,35.43,22.81Z"/><path class="cls-2" d="M53.93,43.08l.24,11.65s-2,3.4-8.84,4.09c-5.07.52-6.88-.6-6.88-.6L39,52.31l.58-5.78,12.26-3Z"/><path d="M51.88,43.58a4.1,4.1,0,0,1-.32,1.13C49.07,50.58,42,52,39,52.31l.58-5.78Z"/><path class="cls-2" d="M36.48,20s-5.82,14.74-3.24,22.81,9.95,6.52,14.34,4.78a14.64,14.64,0,0,0,6.35-4.53,6.28,6.28,0,0,0,6.85-2.7c2.63-4,.77-8.33-1.64-9.26S54,32,54,32L56,27.7S46,6.6,36.48,20Z"/><path d="M36.48,20S41,18.19,43,19.79,47.17,34.9,54,32s3.28-11.56,3.28-11.56S40.15,5.79,36.48,20Z"/><path class="cls-3" d="M39,52.31S36.91,72,34.61,91.67A46.68,46.68,0,0,1,5.68,68.93c3.7-3.88,9.62-10.37,14.73-12.44A66.63,66.63,0,0,1,39,52.31Z"/><path class="cls-4" d="M43.87,59.42a21.49,21.49,0,0,1-5.56-.72.49.49,0,0,1-.34-.62.5.5,0,0,1,.62-.34c.1,0,10,2.8,15.2-3.33a.5.5,0,1,1,.76.65C51.55,58.58,47.28,59.42,43.87,59.42Z"/><path class="cls-3" d="M89.78,64.3A46.72,46.72,0,0,1,59.17,91.53c-1,.27-1.92.51-2.9.71C54.85,76.87,54.1,49.89,54.1,49.89S74.3,48.79,89.78,64.3Z"/><path d="M54.5,38.5a.52.52,0,0,1-.35-.14.5.5,0,0,1,0-.71l3.67-3.8a.5.5,0,0,1,.72.69l-3.67,3.81A.51.51,0,0,1,54.5,38.5Z"/><path d="M59.46,37.57a.25.25,0,0,1-.12,0l-3.17-.82a.5.5,0,0,1,.25-1l3.17.83a.5.5,0,0,1,.36.61A.5.5,0,0,1,59.46,37.57Z"/><path d="M35.52,26.64a.54.54,0,0,1-.3-.1.5.5,0,0,1-.1-.69c0-.06,1-1.3,3.4-1a.5.5,0,0,1-.14,1c-1.78-.26-2.44.53-2.46.57A.53.53,0,0,1,35.52,26.64Z"/><path d="M46.5,26.78a.49.49,0,0,1-.32-.12A3.26,3.26,0,0,0,43.4,26a.52.52,0,0,1-.62-.35.51.51,0,0,1,.35-.62,4.31,4.31,0,0,1,3.69.87.51.51,0,0,1,.06.71A.48.48,0,0,1,46.5,26.78Z"/><path d="M36,32.45a.52.52,0,0,1-.5-.54l.23-2.72a.5.5,0,0,1,.53-.46.51.51,0,0,1,.46.54L36.5,32A.5.5,0,0,1,36,32.45Z"/><path d="M44,32.78a.51.51,0,0,1-.5-.54l.22-2.72a.5.5,0,0,1,1,.08l-.22,2.72A.5.5,0,0,1,44,32.78Z"/><path d="M38,38.92a.49.49,0,0,1-.45-.29,6.88,6.88,0,0,1,1-7,.5.5,0,0,1,.76.65,5.87,5.87,0,0,0-.81,5.95.5.5,0,0,1-.25.66A.52.52,0,0,1,38,38.92Z"/><path d="M41.13,41.36a.49.49,0,0,1-.5-.49.51.51,0,0,1,.5-.51,2.68,2.68,0,0,0,2.37-1.48.5.5,0,1,1,.92.38A3.67,3.67,0,0,1,41.13,41.36Z"/></g></g></svg>