<svg xmlns="http://www.w3.org/2000/svg" viewBox="0 0 93.25 93.25"><defs><style>.cls-1{fill:#edddd6;}.cls-2{fill:#7c6053;}.cls-3{fill:#f27e64;}.cls-4{fill:#fcc;}.cls-5{fill:#fff;}</style></defs><title>member-06</title><g id="Layer_2" data-name="Layer 2"><g id="Layer_1-2" data-name="Layer 1"><path class="cls-1" d="M93.25,46.63A46.63,46.63,0,0,1,30.4,90.34a44.9,44.9,0,0,1-7.31-3.47A46.62,46.62,0,1,1,93.25,46.63Z"/><path class="cls-2" d="M63.39,72.06l-33,18.28a44.9,44.9,0,0,1-7.31-3.47A46.51,46.51,0,0,1,9.92,75.38C13.38,68,21.59,55.29,38.11,51.26a17.49,17.49,0,0,1,8.87,0C59.32,54.61,63.39,72.06,63.39,72.06Z"/><path class="cls-2" d="M87.84,68.44A46.65,46.65,0,0,1,30.4,90.34a44.9,44.9,0,0,1-7.31-3.47C24.31,73,25.57,61.43,26.51,59.25c1.67-3.87,12.86-6.59,20.47-8,4.08-.76,7.13-1.15,7.13-1.15s15,.6,27.21,10.79A37.36,37.36,0,0,1,87.84,68.44Z"/><path d="M35.74,13.92s-5.3,6-2.39,12.61,6-12,6-12Z"/><path class="cls-3" d="M53.57,40.87l.21,11.9s-2.09,3.46-9,4.14c-5.18.51-7-.63-7-.63l.62-6L39,44.35l12.52-3Z"/><path d="M51.47,41.37c0,.33,1.92,1.35,1.73,1.79-2.56,6-12.1,9-15.09,9.32L39,44.35Z"/><path class="cls-3" d="M38,14.51a11.19,11.19,0,0,0-3.45,5.16C33,24.26,29.85,35,31.91,41.55c2.67,8.55,10.37,7,15,5.14a15.43,15.43,0,0,0,6.64-4.76,6.48,6.48,0,0,0,7.14-2.82c2.76-4.17.82-8.8-1.69-9.8s-5.39.9-5.39.9l2.16-4.53S47,7.15,38,14.51Z"/><path d="M54.19,36a.51.51,0,0,1-.4-.2.5.5,0,0,1,.11-.7l4.34-3.24a.5.5,0,0,1,.7.11.51.51,0,0,1-.1.7L54.49,35.9A.47.47,0,0,1,54.19,36Z"/><path d="M59.08,35.85H59L55.42,35a.5.5,0,1,1,.23-1l3.55.85a.5.5,0,0,1-.12,1Z"/><path d="M34.5,28.38l-.13,0a.51.51,0,0,1-.36-.61l.7-2.74a.51.51,0,0,1,.61-.36.5.5,0,0,1,.36.61L35,28A.5.5,0,0,1,34.5,28.38Z"/><path d="M42,28.78l-.12,0a.5.5,0,0,1-.36-.61l.7-2.74a.51.51,0,0,1,.61-.36.5.5,0,0,1,.36.61l-.7,2.74A.5.5,0,0,1,42,28.78Z"/><path d="M34.07,22.39a.5.5,0,0,1-.5-.44A.49.49,0,0,1,34,21.4l2.26-.25a.5.5,0,0,1,.11,1l-2.26.24Z"/><path d="M44.31,24.21a.71.71,0,0,1-.2,0L41,22.88a.51.51,0,0,1-.27-.65.5.5,0,0,1,.66-.27l3.07,1.29a.5.5,0,0,1,.27.65A.51.51,0,0,1,44.31,24.21Z"/><path d="M53.56,30.21s-1.23,5-2.18,4.35-1.84-7.74-1.13-10.94,1.22-4.8,1.22-4.8-13-1.16-16.42-4.24,3.81-5.09,11.21-3.68,10.32,4.18,10.32,4.18,4.64-.69,6.37,2.14S60.74,30.8,60.74,30.8,59.57,28.1,53.56,30.21Z"/><path d="M28.77,35.33s3.63-4,5.48-3.42,2.52,3.31,2.52,3.31,2.19-3,4.61-2.19,7.61,1.18,7.67,2-1.45,1.14-1.45,1.14S35.39,37.6,28.77,35.33Z"/><path d="M53.56,30.21s-.22,8-.06,11.72-10.08,9.42-17.15,6.25-5.13-12.44-5.13-12.44l6.3.59a11.94,11.94,0,0,1,3.1-1.17,8.1,8.1,0,0,1,3.85.56Z"/><path class="cls-4" d="M38.51,38.16a.5.5,0,0,1,0-1,4.05,4.05,0,0,0,2.94-1.81.5.5,0,0,1,.89.45,5,5,0,0,1-3.73,2.36Z"/><path d="M36.55,34.33a.49.49,0,0,1-.45-.28c-1.76-3.51.77-7.2.88-7.36a.5.5,0,0,1,.82.57S35.51,30.63,37,33.6a.5.5,0,0,1-.22.68A.59.59,0,0,1,36.55,34.33Z"/><path class="cls-5" d="M41.48,57.45a27.81,27.81,0,0,1-6.41-.74.5.5,0,0,1-.36-.61.51.51,0,0,1,.61-.36c.12,0,12.37,3.11,18.49-4.14a.51.51,0,0,1,.71-.06.49.49,0,0,1,.06.7C51,56.47,45.67,57.45,41.48,57.45Z"/></g></g></svg>