<svg id="Layer_1" data-name="Layer 1" xmlns="http://www.w3.org/2000/svg" xmlns:xlink="http://www.w3.org/1999/xlink" viewBox="0 0 16 8.81"><defs><style>.cls-1{fill:url(#linear-gradient);}</style><linearGradient id="linear-gradient" x1="5.31" y1="26.3" x2="12.59" y2="33.59" gradientTransform="matrix(1, 0, 0, -1, 0, 36.99)" gradientUnits="userSpaceOnUse"><stop offset="0" stop-color="#2d9599"/><stop offset="0.25" stop-color="#a7226e"/><stop offset="0.5" stop-color="#eb224a"/><stop offset="0.55" stop-color="#ec2848"/><stop offset="0.62" stop-color="#ed3a44"/><stop offset="0.7" stop-color="#f0563c"/><stop offset="0.75" stop-color="#f26b37"/><stop offset="1" stop-color="#f7db4e"/></linearGradient></defs><title>favicon1</title><path class="cls-1" d="M15.41,5.76a4.3,4.3,0,0,0-1.59-1.58,4.81,4.81,0,0,0-4.6,0h0a4.91,4.91,0,0,0-.55.38,4,4,0,0,1,.5.72.75.75,0,0,1,.07.12.61.61,0,0,0,.84.24l.05,0,0,0a2.68,2.68,0,0,1,2.71,0,2.48,2.48,0,0,1,.89,1A3.27,3.27,0,0,1,14.09,8a3.2,3.2,0,0,1-.32,1.42,2.57,2.57,0,0,1-.89,1,2.68,2.68,0,0,1-2.71,0,2.62,2.62,0,0,1-.6-.55l-.15-.21a2,2,0,0,1-.14-.25A3,3,0,0,1,9,8a4.29,4.29,0,0,0-.59-2.24A3.34,3.34,0,0,0,8,5.22a1,1,0,0,0-.13-.16h0a3.5,3.5,0,0,0-.53-.49,4.21,4.21,0,0,0-.55-.39,4.83,4.83,0,0,0-4.61,0A4.36,4.36,0,0,0,0,8a4.34,4.34,0,0,0,2.18,3.82,4.81,4.81,0,0,0,4.6,0l.12-.08,0,0a3.69,3.69,0,0,0,.4-.29,5.2,5.2,0,0,1-.51-.72l-.12-.22a.49.49,0,0,0-.67-.2l-.06,0-.13.09a2.64,2.64,0,0,1-2.71,0,2.45,2.45,0,0,1-.89-1A2.9,2.9,0,0,1,1.91,8a2.94,2.94,0,0,1,.33-1.42,2.57,2.57,0,0,1,.89-1,2.49,2.49,0,0,1,3.29.54,2.13,2.13,0,0,1,.31.47A3.12,3.12,0,0,1,7,8a4.36,4.36,0,0,0,1,2.77l.23.27,0,0h0a4.64,4.64,0,0,0,.4.36,4.14,4.14,0,0,0,.55.38,4.81,4.81,0,0,0,4.6,0A4.33,4.33,0,0,0,16,8,4.29,4.29,0,0,0,15.41,5.76Z" transform="translate(0 -3.6)"/></svg>