<?xml version="1.0" standalone="no"?>
<!DOCTYPE svg PUBLIC "-//W3C//DTD SVG 20010904//EN"
 "http://www.w3.org/TR/2001/REC-SVG-20010904/DTD/svg10.dtd">
<svg version="1.0" xmlns="http://www.w3.org/2000/svg"
 width="1024.000000pt" height="1024.000000pt" viewBox="0 0 1024.000000 1024.000000"
 preserveAspectRatio="xMidYMid meet">
<metadata>
Created by potrace 1.14, written by Peter Selinger 2001-2017
</metadata>
<g transform="translate(0.000000,1024.000000) scale(0.100000,-0.100000)"
fill="#000000" stroke="none">
<path d="M2609 7935 c-3 -2 -29 -6 -59 -9 -199 -18 -473 -78 -655 -142 -38
-14 -77 -27 -85 -29 -8 -2 -16 -4 -17 -5 -2 -2 -7 -3 -11 -4 -4 0 -28 -10 -52
-20 -25 -11 -65 -28 -90 -39 -151 -64 -276 -133 -413 -226 -38 -25 -76 -50
-85 -56 -9 -5 -21 -15 -27 -21 -5 -6 -30 -26 -55 -45 -25 -18 -50 -38 -56 -44
-6 -5 -38 -33 -71 -62 -68 -59 -206 -201 -272 -278 -64 -76 -183 -240 -236
-325 -61 -99 -177 -318 -190 -358 -4 -13 -16 -45 -28 -70 -11 -26 -22 -51 -24
-57 -1 -5 -19 -57 -39 -115 -20 -58 -37 -112 -39 -120 -2 -8 -11 -44 -20 -80
-9 -36 -19 -76 -21 -90 -2 -14 -7 -36 -10 -50 -11 -48 -14 -65 -20 -115 -3
-27 -7 -56 -9 -63 -18 -55 -27 -592 -12 -712 3 -25 8 -72 12 -105 4 -33 9 -63
11 -66 2 -4 6 -24 9 -45 3 -22 8 -50 11 -64 3 -14 7 -34 9 -45 2 -11 13 -56
25 -100 12 -44 23 -84 25 -90 1 -5 4 -17 7 -25 3 -8 16 -44 28 -80 12 -36 24
-72 27 -80 4 -8 7 -18 8 -22 2 -5 4 -10 5 -13 1 -3 3 -8 4 -12 10 -35 161
-341 197 -398 41 -65 122 -187 131 -200 5 -5 27 -35 50 -65 104 -136 264 -306
388 -410 36 -30 67 -57 70 -60 13 -14 223 -165 258 -185 9 -6 44 -26 77 -46
78 -46 311 -159 328 -159 7 0 17 -4 23 -8 42 -35 469 -163 597 -178 23 -3 44
-7 47 -9 3 -2 33 -7 65 -10 33 -4 80 -11 105 -15 50 -10 641 -7 705 3 22 3 58
9 80 12 105 14 303 59 424 96 53 16 103 31 111 33 91 23 424 176 530 244 110
71 190 126 210 144 10 10 23 18 27 18 7 0 42 40 46 53 1 3 -9 18 -23 34 -14
15 -46 55 -70 88 -25 33 -47 62 -50 65 -10 10 -110 158 -110 164 0 3 -13 24
-29 48 -15 24 -47 79 -71 123 -69 130 -109 176 -181 212 -47 24 -89 35 -129
34 -54 -1 -116 -13 -135 -25 -11 -6 -29 -12 -40 -11 -11 0 -41 -14 -68 -32
-26 -18 -51 -33 -56 -33 -5 0 -16 -6 -23 -13 -27 -24 -237 -121 -285 -130 -10
-2 -25 -7 -33 -10 -26 -10 -86 -27 -109 -32 -13 -2 -30 -6 -39 -9 -9 -3 -35
-8 -57 -11 -23 -3 -51 -7 -62 -9 -82 -16 -288 -22 -393 -12 -52 5 -133 17
-150 21 -8 2 -31 7 -50 10 -61 10 -235 64 -305 94 -116 50 -283 151 -369 223
-60 50 -166 157 -211 213 -22 28 -42 52 -45 55 -3 3 -20 28 -38 55 -17 28 -35
55 -40 60 -4 6 -15 24 -24 40 -8 17 -29 56 -47 89 -17 32 -31 64 -31 72 0 8
-4 14 -10 14 -5 0 -10 8 -10 18 0 10 -4 22 -9 27 -20 22 -93 267 -106 355 -4
24 -9 48 -12 52 -20 34 -24 523 -4 658 22 149 62 299 123 460 90 239 307 541
489 681 16 13 42 34 57 47 15 12 43 32 62 44 19 12 37 24 40 27 11 13 186 105
225 119 17 6 55 20 85 31 96 37 241 71 374 88 62 8 262 7 336 -1 175 -19 366
-74 525 -152 121 -58 168 -85 173 -96 2 -5 8 -8 13 -8 16 0 164 -118 241 -193
122 -118 248 -287 316 -424 49 -99 115 -288 128 -368 3 -16 9 -43 14 -60 5
-16 12 -50 15 -75 3 -25 8 -67 12 -95 4 -27 7 -78 7 -112 1 -35 3 -63 6 -63 4
0 4 -36 -1 -145 0 -13 11 -225 15 -285 2 -25 7 -61 10 -80 4 -19 8 -46 10 -60
3 -24 10 -65 21 -120 4 -22 11 -51 29 -128 3 -13 8 -32 11 -42 3 -10 8 -28 10
-39 7 -39 77 -236 117 -331 55 -129 120 -257 190 -369 32 -51 58 -95 58 -97 0
-3 4 -10 10 -17 46 -57 60 -76 60 -85 0 -6 3 -12 8 -14 6 -2 79 -92 142 -173
36 -46 245 -248 334 -322 303 -253 654 -429 1076 -540 52 -13 108 -26 124 -28
15 -3 36 -7 46 -10 10 -3 33 -8 51 -10 19 -3 45 -7 59 -10 14 -3 45 -8 70 -11
25 -3 56 -7 70 -9 134 -23 570 -22 700 1 25 4 78 12 135 19 35 4 79 13 115 21
14 3 39 8 55 11 92 14 404 112 520 162 11 5 38 17 60 26 299 129 587 326 830
570 142 142 159 161 253 285 39 52 76 100 82 107 5 7 15 24 22 38 6 14 15 25
20 25 4 0 8 4 8 8 0 5 24 49 54 98 47 78 106 196 159 317 10 20 24 52 32 70
33 75 115 346 132 437 2 14 8 44 13 67 5 22 13 65 16 95 3 29 8 55 9 58 11 18
20 195 20 385 0 220 -6 327 -25 440 -6 33 -13 76 -16 95 -3 19 -8 38 -10 41
-2 4 -6 24 -10 45 -12 83 -117 413 -153 481 -15 29 -85 178 -86 183 0 3 -14
28 -29 55 -125 216 -191 313 -318 468 -78 94 -266 282 -348 348 -111 88 -180
139 -190 139 -5 0 -10 4 -10 9 0 5 -9 13 -20 16 -11 3 -26 12 -32 18 -24 23
-343 200 -355 198 -2 0 -24 9 -50 20 -27 12 -64 27 -83 34 -19 7 -48 19 -65
26 -16 6 -34 13 -40 14 -5 2 -44 14 -85 28 -130 43 -360 98 -466 112 -209 28
-241 30 -469 30 -257 0 -321 -5 -505 -37 -111 -19 -98 -16 -177 -33 -46 -10
-59 -13 -103 -26 -25 -7 -49 -13 -55 -15 -81 -19 -313 -106 -437 -163 -36 -17
-71 -31 -76 -31 -6 0 -12 -3 -14 -7 -1 -5 -25 -19 -53 -32 -27 -14 -87 -48
-133 -78 -45 -29 -87 -53 -92 -53 -4 0 -10 -3 -12 -8 -1 -4 -35 -31 -74 -60
-98 -71 -98 -72 -66 -108 60 -66 231 -310 255 -364 4 -8 16 -28 27 -45 11 -16
28 -46 37 -65 27 -54 90 -127 139 -160 25 -16 47 -30 49 -30 2 0 16 -5 32 -12
48 -19 56 -20 148 -21 71 0 100 5 138 22 27 11 57 21 67 21 11 0 42 13 70 30
27 16 50 26 50 22 0 -4 4 -2 8 4 8 12 133 65 234 100 80 27 234 60 333 70 85
10 311 10 380 0 72 -9 127 -19 200 -36 47 -10 122 -33 155 -47 8 -3 22 -7 31
-9 14 -3 100 -40 188 -82 38 -17 132 -73 141 -82 3 -3 21 -17 40 -30 134 -94
296 -266 393 -417 147 -229 279 -582 303 -808 2 -16 7 -55 11 -85 13 -98 5
-403 -11 -450 -3 -8 -8 -33 -11 -54 -3 -21 -7 -48 -10 -60 -3 -12 -7 -32 -9
-46 -7 -43 -42 -163 -74 -250 -3 -8 -6 -19 -8 -25 -6 -25 -76 -180 -105 -232
-114 -205 -252 -366 -434 -504 -33 -25 -71 -52 -85 -59 -14 -7 -27 -16 -30
-20 -10 -12 -155 -82 -242 -116 -78 -31 -243 -78 -307 -89 -46 -7 -115 -17
-151 -21 -44 -4 -253 -4 -300 1 -75 7 -146 16 -162 21 -9 3 -27 7 -40 9 -65
12 -124 29 -135 38 -7 5 -13 7 -13 3 0 -15 -337 129 -360 154 -3 3 -34 25 -70
50 -132 91 -245 203 -364 363 -20 26 -36 52 -36 57 0 6 -4 10 -8 10 -5 0 -15
12 -23 28 -8 15 -17 29 -20 32 -11 9 -109 220 -109 233 0 8 -3 17 -7 21 -5 4
-8 11 -9 14 0 4 -3 14 -7 22 -21 52 -67 231 -82 320 -20 117 -30 311 -24 445
1 25 -11 254 -16 290 -2 22 -8 63 -11 90 -3 28 -8 59 -11 70 -2 11 -10 54 -18
95 -24 131 -97 374 -145 485 -61 141 -80 180 -129 270 -29 55 -60 107 -67 116
-8 8 -14 19 -14 22 0 7 -71 115 -97 147 -6 8 -36 45 -65 81 -29 36 -64 81 -78
99 -31 42 -281 294 -335 338 -87 71 -304 232 -314 232 -5 0 -11 4 -13 9 -5 14
-127 85 -241 139 -59 29 -109 52 -112 52 -2 0 -28 11 -57 24 -83 37 -347 124
-428 140 -14 3 -67 14 -118 25 -51 11 -114 23 -140 26 -26 4 -58 9 -72 11 -68
13 -157 17 -401 20 -147 2 -268 1 -270 -1z"/>
</g>
</svg>
