<svg id="Layer_1" data-name="Layer 1" xmlns="http://www.w3.org/2000/svg" xmlns:xlink="http://www.w3.org/1999/xlink" viewBox="0 0 277.5 114.81"><defs><style>.cls-1{fill:url(#linear-gradient);}.cls-2{fill:#404041;}.cls-3{fill:#b4b3b4;}</style><linearGradient id="linear-gradient" x1="118.57" y1="63.83" x2="162.75" y2="19.65" gradientUnits="userSpaceOnUse"><stop offset="0" stop-color="#2d9599"/><stop offset="0.25" stop-color="#a7226e"/><stop offset="0.5" stop-color="#eb224a"/><stop offset="0.55" stop-color="#ec2848"/><stop offset="0.62" stop-color="#ed3a44"/><stop offset="0.7" stop-color="#f0563c"/><stop offset="0.75" stop-color="#f26b37"/><stop offset="1" stop-color="#f7db4e"/></linearGradient></defs><title>bloom-media-logo</title><path class="cls-1" d="M179.85,33.9a26.61,26.61,0,0,0-9.65-9.55,29.18,29.18,0,0,0-27.9,0l0,0h0a27.62,27.62,0,0,0-3.31,2.27A32.31,32.31,0,0,1,142,31c.15.26.3.51.44.77A3.71,3.71,0,0,0,147.81,33l.24-.16a16.16,16.16,0,0,1,16.45,0,15.06,15.06,0,0,1,5.4,6.1,19.16,19.16,0,0,1,1.9,8.55,19,19,0,0,1-1.9,8.6,15.06,15.06,0,0,1-5.4,6,16.16,16.16,0,0,1-16.45,0,15,15,0,0,1-3.62-3.31c-.33-.41-.63-.84-.92-1.28a14.77,14.77,0,0,1-.86-1.51,18.61,18.61,0,0,1-2-8.55,26.28,26.28,0,0,0-3.55-13.6,27.15,27.15,0,0,0-2.24-3.22c-.26-.32-.52-.63-.79-.94l0,0a25.18,25.18,0,0,0-3.23-3,26.35,26.35,0,0,0-3.36-2.32,29.18,29.18,0,0,0-27.9,0A26.28,26.28,0,0,0,86.4,47.5,26.28,26.28,0,0,0,99.6,70.65a29.18,29.18,0,0,0,27.9,0l.75-.45.16-.13a25.17,25.17,0,0,0,2.45-1.74,30.84,30.84,0,0,1-3.1-4.41c-.26-.44-.51-.89-.74-1.34a3,3,0,0,0-4.41-1c-.26.2-.53.38-.81.56a16.16,16.16,0,0,1-16.45,0,15.44,15.44,0,0,1-5.4-6.1,18.61,18.61,0,0,1-2-8.55,18.58,18.58,0,0,1,2-8.6,15.58,15.58,0,0,1,5.4-6,15.13,15.13,0,0,1,20,3.25A15.34,15.34,0,0,1,127.2,39a19.16,19.16,0,0,1,1.9,8.55,26.23,26.23,0,0,0,5.79,16.81c.45.56.92,1.09,1.41,1.61l.16.18,0,0a25.27,25.27,0,0,0,2.42,2.2,26.39,26.39,0,0,0,3.37,2.31,29.18,29.18,0,0,0,27.9,0A26.28,26.28,0,0,0,183.4,47.5,26.28,26.28,0,0,0,179.85,33.9Z"/><path class="cls-2" d="M26.5,74.2a28.17,28.17,0,0,1-13.8-3.3,23.19,23.19,0,0,1-9.35-9.45A30,30,0,0,1,0,46.9V0H0A11.5,11.5,0,0,1,11.5,11.5V29.7h.1A16.59,16.59,0,0,1,15.8,25a20.22,20.22,0,0,1,5.8-3.1,20.85,20.85,0,0,1,6.8-1.1,24.92,24.92,0,0,1,12.85,3.25A23,23,0,0,1,50,33.1,28.08,28.08,0,0,1,53.1,46.7a32.28,32.28,0,0,1-1.85,11.15A25.5,25.5,0,0,1,46,66.6a22.68,22.68,0,0,1-8.35,5.65A29.84,29.84,0,0,1,26.5,74.2Zm0-9.8a14.24,14.24,0,0,0,7.8-2.15,14.59,14.59,0,0,0,5.3-6,19.39,19.39,0,0,0,1.9-8.8,19.13,19.13,0,0,0-1.9-8.7,15.18,15.18,0,0,0-5.25-6,13.77,13.77,0,0,0-7.75-2.2,14.33,14.33,0,0,0-7.8,2.15,14.59,14.59,0,0,0-5.3,6,19.39,19.39,0,0,0-1.9,8.8,19.39,19.39,0,0,0,1.9,8.8,14.59,14.59,0,0,0,5.3,6A14,14,0,0,0,26.5,64.4Z"/><path class="cls-2" d="M64,74.2V1.2h0A11.5,11.5,0,0,1,75.5,12.7V74.2Z"/><path class="cls-2" d="M194.3,74.2V43.7a21.63,21.63,0,0,1,2.8-10.85,20.47,20.47,0,0,1,8.1-7.9A25.67,25.67,0,0,1,217.9,22a26.11,26.11,0,0,1,6.9.9A20.26,20.26,0,0,1,231,25.75a18.79,18.79,0,0,1,4.85,4.85h.1a18.64,18.64,0,0,1,4.85-4.85A20.09,20.09,0,0,1,247,22.9a26.65,26.65,0,0,1,7-.9A25.63,25.63,0,0,1,266.65,25a20.67,20.67,0,0,1,8.05,7.9,21.74,21.74,0,0,1,2.8,10.85V74.2h0a11.39,11.39,0,0,1-11.4-11.4V43.7a11.28,11.28,0,0,0-1.65-6,12.52,12.52,0,0,0-4.35-4.3,11.91,11.91,0,0,0-6.2-1.6,12.34,12.34,0,0,0-10.65,5.9,11.28,11.28,0,0,0-1.65,6V74.2H230.2V43.7a11.06,11.06,0,0,0-1.7-6,12.9,12.9,0,0,0-4.45-4.3,12.62,12.62,0,0,0-12.3,0,12.33,12.33,0,0,0-4.4,4.3,11.28,11.28,0,0,0-1.65,6V74.2Z"/><path class="cls-3" d="M86.84,114.3V102.24a8.68,8.68,0,0,1,1-4.22,7.83,7.83,0,0,1,3-3,8.82,8.82,0,0,1,4.58-1.14,10.2,10.2,0,0,1,2.8.41,7.64,7.64,0,0,1,2.67,1.41,6.7,6.7,0,0,1,1.94,2.76h0a6.56,6.56,0,0,1,2-2.76,7.77,7.77,0,0,1,2.7-1.41,10.34,10.34,0,0,1,2.78-.41A9,9,0,0,1,114.94,95a7.75,7.75,0,0,1,2.93,3,8.78,8.78,0,0,1,1,4.22V114.3h0a2.7,2.7,0,0,1-2.7-2.7v-9.36a6,6,0,0,0-.78-3.1,6.23,6.23,0,0,0-2.1-2.14,5.7,5.7,0,0,0-3-.8,6,6,0,0,0-6.07,6V114.3H101.5V102.24a5.8,5.8,0,0,0-.83-3.06A6.29,6.29,0,0,0,98.5,97a6,6,0,0,0-3.08-.8,5.84,5.84,0,0,0-5.11,2.94,6.11,6.11,0,0,0-.76,3.1V114.3Z"/><path class="cls-3" d="M154.27,114.3a13.24,13.24,0,0,1-5.74-1.19,9.26,9.26,0,0,1-5.46-8.8A11.75,11.75,0,0,1,144.24,99a9.56,9.56,0,0,1,3.31-3.78,8.88,8.88,0,0,1,5-1.41,9.08,9.08,0,0,1,5,1.29,8.44,8.44,0,0,1,3.1,3.49,11.16,11.16,0,0,1,1.06,4.94c0,.26,0,.55,0,.86a7.27,7.27,0,0,1-.12.82H146a6.43,6.43,0,0,0,1.25,3.69,7,7,0,0,0,3,2.23,10.23,10.23,0,0,0,3.94.74h2.66a2.39,2.39,0,0,1,2.39,2.39h-4.9Zm-8.3-11H158.9a11.47,11.47,0,0,0-.16-1.74,7.94,7.94,0,0,0-.57-1.9A5.86,5.86,0,0,0,157,97.93a5.31,5.31,0,0,0-1.84-1.28,6.85,6.85,0,0,0-2.72-.49,5.78,5.78,0,0,0-2.7.63,6.24,6.24,0,0,0-2,1.66,8.08,8.08,0,0,0-1.27,2.3A8,8,0,0,0,146,103.29Z"/><path class="cls-3" d="M194.86,114.81a10.79,10.79,0,0,1-3.93-.72,9.36,9.36,0,0,1-5.43-5.45,12.13,12.13,0,0,1-.78-4.48,10.76,10.76,0,0,1,1.33-5.51,9.5,9.5,0,0,1,3.54-3.55,9.89,9.89,0,0,1,4.92-1.25,8.54,8.54,0,0,1,3.14.59,8.92,8.92,0,0,1,2.66,1.62,8,8,0,0,1,1.84,2.37h.08v-10A2.74,2.74,0,0,1,205,85.7h0v18.65A11,11,0,0,1,203.6,110a9.1,9.1,0,0,1-3.66,3.57A10.67,10.67,0,0,1,194.86,114.81Zm0-2.39a7.22,7.22,0,0,0,3.63-.94,6.82,6.82,0,0,0,2.66-2.74,8.9,8.9,0,0,0,1-4.39,8.8,8.8,0,0,0-1-4.39,7.11,7.11,0,0,0-6.34-3.72,7.06,7.06,0,0,0-3.63,1,7.3,7.3,0,0,0-2.68,2.8,8.67,8.67,0,0,0-1,4.29,8.8,8.8,0,0,0,1,4.37,7,7,0,0,0,2.72,2.78A7.36,7.36,0,0,0,194.9,112.42Z"/><path class="cls-3" d="M231.5,90.72a2,2,0,0,1-2-2,1.85,1.85,0,0,1,.59-1.39,1.91,1.91,0,0,1,1.37-.57,1.95,1.95,0,0,1,2,2,1.91,1.91,0,0,1-.57,1.37A1.87,1.87,0,0,1,231.5,90.72Zm-1.37,23.58v-20h0a2.74,2.74,0,0,1,2.74,2.74V114.3Z"/><path class="cls-3" d="M266.64,114.81a9.24,9.24,0,0,1-5.17-1.41,9.15,9.15,0,0,1-3.29-3.78,12.09,12.09,0,0,1-1.14-5.31A11.24,11.24,0,0,1,258.3,99a9.33,9.33,0,0,1,3.58-3.74,10.82,10.82,0,0,1,5.55-1.37,10.16,10.16,0,0,1,5.35,1.37,9.47,9.47,0,0,1,3.48,3.68,10.85,10.85,0,0,1,1.24,5.22V114.3h0a2.7,2.7,0,0,1-2.71-2.7v-1.76h-.11a9.1,9.1,0,0,1-1.65,2.33,9,9,0,0,1-2.68,1.9A8.77,8.77,0,0,1,266.64,114.81Zm.59-2.35a7,7,0,0,0,3.88-1.08,7.54,7.54,0,0,0,2.66-2.93,8.61,8.61,0,0,0,1-4.22,9.07,9.07,0,0,0-.91-4.11,6.89,6.89,0,0,0-6.46-3.92,7.34,7.34,0,0,0-4,1.08,7.09,7.09,0,0,0-2.58,2.94,9.53,9.53,0,0,0-.9,4.21,9.28,9.28,0,0,0,.86,4,6.72,6.72,0,0,0,2.53,2.92A7.19,7.19,0,0,0,267.23,112.46Z"/></svg>