<?xml version="1.0" encoding="utf-8"?>
<!-- Generator: Adobe Illustrator 24.0.0, SVG Export Plug-In . SVG Version: 6.00 Build 0)  -->
<svg version="1.1" id="Layer_1" xmlns="http://www.w3.org/2000/svg" xmlns:xlink="http://www.w3.org/1999/xlink" x="0px" y="0px"
	 viewBox="0 0 16 16" style="enable-background:new 0 0 16 16;" xml:space="preserve">
<style type="text/css">
	.st0{fill:#FBE555;}
</style>
<title>bloom-media-logo-white</title>
<path class="st0" d="M15.4,5.8c-0.4-0.7-0.9-1.2-1.6-1.6c-1.4-0.8-3.2-0.8-4.6,0l0,0l0,0C9,4.3,8.8,4.4,8.7,4.6C8.9,4.8,9,5,9.2,5.3
	c0,0,0,0.1,0.1,0.1c0.2,0.3,0.5,0.4,0.8,0.2c0,0,0,0,0.1,0l0,0c0.8-0.5,1.9-0.5,2.7,0c0.4,0.2,0.7,0.6,0.9,1C14,7,14.1,7.5,14.1,8
	c0,0.5-0.1,1-0.3,1.4c-0.2,0.4-0.5,0.7-0.9,1c-0.8,0.5-1.9,0.5-2.7,0c-0.2-0.1-0.4-0.3-0.6-0.5C9.5,9.8,9.5,9.7,9.4,9.6
	C9.4,9.6,9.3,9.5,9.3,9.4C9.1,9,8.9,8.5,8.9,8c0-0.8-0.2-1.6-0.6-2.2C8.3,5.6,8.1,5.4,8,5.2c0-0.1-0.1-0.1-0.1-0.2l0,0
	C7.7,4.9,7.5,4.7,7.3,4.6C7.2,4.4,7,4.3,6.8,4.2c-1.4-0.8-3.2-0.8-4.6,0C0.8,5,0,6.4,0,8c0,1.6,0.8,3,2.2,3.8c1.4,0.8,3.2,0.8,4.6,0
	l0.1-0.1l0,0c0.1-0.1,0.3-0.2,0.4-0.3C7.1,11.2,7,11,6.8,10.7c0-0.1-0.1-0.1-0.1-0.2c-0.1-0.2-0.4-0.3-0.7-0.2c0,0,0,0-0.1,0
	c0,0-0.1,0.1-0.1,0.1c-0.8,0.5-1.9,0.5-2.7,0c-0.4-0.2-0.7-0.6-0.9-1C2,9,1.9,8.5,1.9,8c0-0.5,0.1-1,0.3-1.4c0.2-0.4,0.5-0.7,0.9-1
	c1.1-0.7,2.5-0.5,3.3,0.5c0.1,0.1,0.2,0.3,0.3,0.5C6.9,7,7,7.5,7,8c0,1,0.3,2,1,2.8C8.1,10.9,8.2,11,8.2,11l0,0l0,0
	c0.1,0.1,0.3,0.3,0.4,0.4c0.2,0.1,0.4,0.3,0.6,0.4c1.4,0.8,3.2,0.8,4.6,0C15.2,11,16,9.6,16,8C16,7.2,15.8,6.4,15.4,5.8z"/>
</svg>
