<svg xmlns="http://www.w3.org/2000/svg" viewBox="0 0 93.25 93.24"><defs><style>.cls-1{fill:#edddd6;}.cls-2{fill:#fca397;}.cls-3{fill:#507849;}.cls-4{fill:#fff;}</style></defs><title>member-02</title><g id="Layer_2" data-name="Layer 2"><g id="Layer_1-2" data-name="Layer 1"><path class="cls-1" d="M93.25,46.62A46.62,46.62,0,0,1,9.06,74.23,46.62,46.62,0,1,1,93.25,46.62Z"/><path d="M43.07,19.68s6.27-8.78,22.32-.09,9.24,48.59,9.24,48.59L44.42,64.29Z"/><path class="cls-2" d="M48.33,43,49,54.47s-1.79,3.42-8.22,4.36c-4.78.69-6.47-1.78-6.47-1.78l.55-10.13,11.5-3.37Z"/><path d="M48.27,42.29A3.69,3.69,0,0,1,48,43.41c-2.11,5.89-10.66,8.8-13.42,9.23l.31-5.72Z"/><path class="cls-2" d="M30.81,20.89s-4.9,14.75-2.12,22.61,9.71,6.07,13.8,4.19A14,14,0,0,0,48.33,43a5.81,5.81,0,0,0,6.37-2.92c2.34-4,.38-8.24-1.94-9.07s-4.86,1.06-4.86,1.06l1.77-4.32S39.25,7.31,30.81,20.89Z"/><path d="M32.8,39.05a.5.5,0,0,1-.46-.32c-1.17-3,.65-6.29.72-6.42a.5.5,0,0,1,.68-.2.51.51,0,0,1,.2.68s-1.67,3-.67,5.57A.5.5,0,0,1,33,39,.53.53,0,0,1,32.8,39.05Z"/><path d="M49,38.75a.49.49,0,0,1-.4-.8L52,33.53a.51.51,0,0,1,.7-.1.5.5,0,0,1,.09.7L49.4,38.56A.48.48,0,0,1,49,38.75Z"/><path d="M52.86,37.32l-2.65-.19a.5.5,0,0,1,.07-1l2.62.19a.5.5,0,0,1,0,1Z"/><path d="M29.15,27.58a.5.5,0,0,1-.48-.37.51.51,0,0,1,.35-.62l2.4-.65a.5.5,0,0,1,.26,1l-2.4.65Z"/><path d="M39.43,28.37l-.13,0-3.4-.88a.5.5,0,0,1,.25-1l3.4.88a.5.5,0,0,1-.12,1Z"/><path d="M29.66,33.44h-.1a.5.5,0,0,1-.39-.59l.48-2.39L29,29.73a.5.5,0,0,1,.74-.68l.84.9a.49.49,0,0,1,.12.45L30.15,33A.5.5,0,0,1,29.66,33.44Z"/><path d="M37.23,33.53h-.1a.5.5,0,0,1-.39-.59l.49-2.38-1-1a.49.49,0,0,1,0-.7.5.5,0,0,1,.71,0L38.13,30a.53.53,0,0,1,.13.45l-.54,2.64A.49.49,0,0,1,37.23,33.53Z"/><path class="cls-3" d="M34.21,59.11S33,53,34.59,52.64s3.51.68,7.26-.26,5.71-2.33,6.91-2.4.83,7.61.83,7.61l-9.27,3.92Z"/><path d="M53.42,31.34A7.38,7.38,0,0,0,50.26,31a5.62,5.62,0,0,0-2.36,1.1l-2,3.79-.69-4.44a10.92,10.92,0,0,0-1.85-3.74,11.27,11.27,0,0,0-5.27-3.79l-2.66-2.46-2.81,3.72-2.74,1.43-1.5,4.57s-.37-12.32,5-15.7c6.26-4,15.44-3.58,19.55,2.42C56.85,23.63,53.62,30.9,53.42,31.34Z"/><path d="M36.61,42.1a.5.5,0,0,1-.06-1A3.58,3.58,0,0,0,39,39a.51.51,0,0,1,.68-.22.51.51,0,0,1,.21.68,4.49,4.49,0,0,1-3.21,2.66Z"/><path class="cls-3" d="M80.6,78.54A46.62,46.62,0,0,1,9.06,74.23c4.2-5.2,13.28-14.67,25.29-17.18C50.05,53.76,72.33,57.33,80.6,78.54Z"/><path class="cls-4" d="M43.59,56.25a.5.5,0,0,1-.5-.5.5.5,0,0,1,.5-.5A14,14,0,0,0,48.83,54a.49.49,0,0,1,.66.24.5.5,0,0,1-.24.67A14.88,14.88,0,0,1,43.59,56.25Z"/></g></g></svg>