<svg xmlns="http://www.w3.org/2000/svg" viewBox="0 0 93.24 93.24"><defs><style>.cls-1{fill:#edddd6;}.cls-2{fill:#7772d3;}.cls-3{fill:#630;}.cls-4{fill:#46467f;}.cls-5{fill:#fca397;}.cls-6{fill:#f7734f;}.cls-7{fill:#fff;}</style></defs><title>member-04</title><g id="Layer_2" data-name="Layer 2"><g id="Layer_1-2" data-name="Layer 1"><circle class="cls-1" cx="46.62" cy="46.62" r="46.62" transform="translate(-19.31 46.62) rotate(-45)"/><path class="cls-2" d="M24,87.4A46.58,46.58,0,0,1,9.76,75.21c4.46-6.47,16-15.84,22.34-17.94C40.1,54.62,28.31,73,24,87.4Z"/><path class="cls-3" d="M57.36,27.65a9.58,9.58,0,0,1,6.75,1.58A9.79,9.79,0,0,1,68,35.81c1.4,8-1.48,10.27,3.12,13.3s7.2,1.17,10.1,8.66S79.68,75.29,70.38,73.26s-31.83-8.17-31.83-8.17l-1-33.32,11.28-3Z"/><path class="cls-2" d="M72.06,85.68A46.5,46.5,0,0,1,46.6,93.24c-1.41,0-2.81-.06-4.19-.19A46.73,46.73,0,0,1,13.26,79.21a57.93,57.93,0,0,1,4.27-9.62c7-11.66,17.1-12.76,17.1-12.76,10.87-3.19,20.15-3.76,30,1C69.07,60,71.21,72.49,72.06,85.68Z"/><path class="cls-4" d="M67.18,83.54l-.29,5.06a46,46,0,0,1-10.7,3.65,46.64,46.64,0,0,1-9.59,1c-1.41,0-2.81-.06-4.19-.19A46.53,46.53,0,0,1,24,87.4c-.2-.11-.4-.22-.59-.34a43,43,0,0,1-6.2-4.24A221.68,221.68,0,0,1,32.1,57.27l13.15-2.74L62,57.39Z"/><path class="cls-2" d="M32.1,57.27s-5.23,17-8.67,29.79a44.91,44.91,0,0,1-6.52-4.49L28,60.45Z"/><path class="cls-3" d="M28,34.4S23.54,27.14,23.89,24c.86-7.71,11.68-13,22.47-9.42s13,17.05,11.32,22.89c-4.34,15-17.46,9.81-17.46,9.81S19.81,43.5,28,34.4Z"/><path class="cls-5" d="M31.63,50.45l0,.28L32.26,56l.46,4.12s-.29,1,4.5.34c6.42-.9,8.3-3.81,8.3-3.81l-.4-9.71-1.93.51Z"/><path d="M31.65,50.73,32.26,56c3.1-.6,8.71-2.36,10.67-7.45a4.07,4.07,0,0,0,.26-1.08L31.66,50.64Z"/><path class="cls-5" d="M27.83,25.64s-5,14.15-2.33,21.71,9.65,5.85,13.75,4.06a14,14,0,0,0,5.87-4.5,6,6,0,0,0,6.39-2.78c2.37-3.84.45-7.92-1.86-8.72s-4.86,1-4.86,1l1.81-4.14S36.38,12.62,27.83,25.64Z"/><path d="M29.66,43.1a.51.51,0,0,1-.47-.32c-1.14-2.89.71-6.06.79-6.19a.5.5,0,0,1,.68-.18.51.51,0,0,1,.18.69s-1.68,2.88-.72,5.31a.5.5,0,0,1-.28.65A.39.39,0,0,1,29.66,43.1Z"/><path d="M45.84,42.86a.48.48,0,0,1-.32-.11.49.49,0,0,1-.07-.7l3.42-4.24a.5.5,0,0,1,.78.63l-3.42,4.24A.51.51,0,0,1,45.84,42.86Z"/><path d="M49.7,41.5l-2.64-.19a.5.5,0,0,1-.47-.54.52.52,0,0,1,.54-.46l2.61.19a.5.5,0,0,1,0,1Z"/><path d="M34.15,47a4.31,4.31,0,0,1-2.52-1,.53.53,0,0,1-.17-.46.51.51,0,0,1,.3-.38L37,42.93a.5.5,0,0,1,.51.08.49.49,0,0,1,.17.49,5.11,5.11,0,0,1-2.17,3.11A2.5,2.5,0,0,1,34.15,47ZM33,45.69a2,2,0,0,0,2,.07,3.64,3.64,0,0,0,1.31-1.45Z"/><path d="M37.48,32.41a.49.49,0,0,1-.42-.23c-.69-1.12-2.29-.67-2.36-.65a.51.51,0,0,1-.62-.34.5.5,0,0,1,.34-.62c.1,0,2.39-.69,3.49,1.08a.51.51,0,0,1-.16.69A.54.54,0,0,1,37.48,32.41Z"/><path d="M26.79,31.65a.54.54,0,0,1-.35-.14.51.51,0,0,1,0-.71,3.66,3.66,0,0,1,2.33-1.06,2.11,2.11,0,0,1,1.58.85.51.51,0,0,1-.08.71.5.5,0,0,1-.7-.08,1.17,1.17,0,0,0-.84-.49,2.52,2.52,0,0,0-1.57.77A.51.51,0,0,1,26.79,31.65Z"/><path d="M27.14,37.46a.51.51,0,0,1-.5-.54l.16-2.36-.91-1a.5.5,0,1,1,.72-.69L27.68,34a.52.52,0,0,1,.13.38L27.64,37A.51.51,0,0,1,27.14,37.46Z"/><path d="M36.46,37.49A.51.51,0,0,1,36,37l.12-2.33-1.35-1.14a.49.49,0,0,1-.06-.7.51.51,0,0,1,.71-.06L36.91,34a.49.49,0,0,1,.18.41L37,37A.5.5,0,0,1,36.46,37.49Z"/><path class="cls-3" d="M51.71,23.09S49.84,6.65,61.13,8.17c12,1.61,1.18,20.9-6.46,20C51.26,27.84,51.71,23.09,51.71,23.09Z"/><path class="cls-6" d="M32.33,61.35h-.64a.5.5,0,1,1,0-1c.07,0,7,.3,12.62-3a.5.5,0,0,1,.68.17.49.49,0,0,1-.17.69A25.9,25.9,0,0,1,32.33,61.35Z"/><path class="cls-2" d="M79.54,79.62A46.53,46.53,0,0,1,46.6,93.24c-1.41,0-2.81-.06-4.19-.19C43.27,88.25,44.2,85,44.2,85L56,55.06s11.76.26,19.64,12.32C77.36,70,78.72,74.36,79.54,79.62Z"/><path class="cls-2" d="M56.19,92.25a46.64,46.64,0,0,1-9.59,1c-1.41,0-2.81-.06-4.19-.19A45.92,45.92,0,0,1,35.84,92C40,74.27,45.52,54.55,45.52,54.55l10.5.51Z"/><path class="cls-7" d="M57.36,28.15a.51.51,0,0,1-.5-.45c-.7-7.14-5.48-9.68-5.53-9.7a.51.51,0,0,1-.21-.68.5.5,0,0,1,.67-.21c.22.11,5.31,2.81,6.07,10.49a.5.5,0,0,1-.45.55Z"/><path class="cls-3" d="M34.85,19.81a11.16,11.16,0,0,0-1.94,5.74l-.24,3.54,14.67,4.28.3-7.1Z"/><path class="cls-3" d="M33.63,22.15a7.7,7.7,0,0,0-1.87,2.63,38.61,38.61,0,0,0-1.19,4.5l-4.25-.48.48-7.41,5.73-3.51,3.46.39L35.46,23Z"/><path class="cls-7" d="M26.05,38.75a5,5,0,1,1,4.87-5A5,5,0,0,1,26.05,38.75Zm0-9a4,4,0,1,0,3.87,4A4,4,0,0,0,26.05,29.7Z"/><path class="cls-7" d="M37.09,38.39a5,5,0,1,1,4.87-5A5,5,0,0,1,37.09,38.39Zm0-9a4,4,0,1,0,3.87,4A3.95,3.95,0,0,0,37.09,29.35Z"/><path class="cls-7" d="M49.31,34.45a.49.49,0,0,0,.34-.14.5.5,0,0,0,0-.7c-2.69-2.86-8-.22-8.17-.11a.51.51,0,0,0-.22.68.5.5,0,0,0,.67.21s4.81-2.41,7-.1A.48.48,0,0,0,49.31,34.45Z"/><path class="cls-7" d="M30.05,33.46c0-.08,0-.23.18-.52.28,0,.73,0,1.29-.09,1-.08,1.48-.14,1.6.08s.07.22-.1.5c-.33,0-.79.1-1.36.15C30.36,33.68,30.12,33.6,30.05,33.46Z"/></g></g></svg>